<?xml version="1.0" encoding="UTF-8"?>
<svg xmlns="http://www.w3.org/2000/svg" xmlns:xlink="http://www.w3.org/1999/xlink" version="1.1" viewBox="0 0 1200 675">
  <!-- Generator: Adobe Illustrator 29.8.1, SVG Export Plug-In . SVG Version: 2.1.1 Build 2)  -->
  <defs>
    <style>
      .st0 {
        fill: url(#radial-gradient);
      }

      .st1 {
        fill: #a58763;
      }

      .st2 {
        fill: #be9e73;
      }

      .st3 {
        fill: #cdb389;
      }

      .st4 {
        display: none;
      }
    </style>
    <radialGradient id="radial-gradient" cx="600" cy="340.3" fx="600" fy="340.3" r="487.8" gradientUnits="userSpaceOnUse">
      <stop offset="0" stop-color="#e5cfab"/>
      <stop offset="1" stop-color="#cdb389"/>
    </radialGradient>
  </defs>
  <g id="Layer_1" class="st4">
    <image width="1200" height="675" xlink:href="bg6.jpg"/>
  </g>
  <g id="Layer_4">
    <rect class="st0" width="1200" height="680.6"/>
  </g>
  <g id="Layer_5">
    <polygon class="st1" points="0 675 1200 675 1200 0 0 -1.4 0 675"/>
  </g>
  <g id="Layer_3">
    <circle class="st2" cx="176.1" cy="159.3" r="11.3"/>
    <circle class="st2" cx="225.6" cy="73.9" r="11.3"/>
    <circle class="st2" cx="96.5" cy="217.1" r="11.3"/>
    <circle class="st2" cx="0" cy="238.6" r="11.3"/>
    <path class="st2" d="M55.5,264.6s3.2-16.3,11.4-23.8c7.5-10.7,20.3-20.6,12.8-63.2-.4,10.7,5,32-24.2,61,5-8.7,14-19.9,13.2-27.6-2.6,4.7-7.2,10.2-7.2,10.2,0,0-10.7,10.5-10.7,15.1-6.4-4.3-13.5-8.4-18.8-9-5-3.8-8.9-5.6-8.9-8.4,1.4,6,7.1,13.6,22,19.8-7.8-2.7-29.5-12.3-30.9-17.4-4.6-5.2-11.3-13.3-12.8-26.8.7,11.4,5.3,27.1,7.8,29,8.2,9,19.9,19.7,34.8,29.3,4.3,1.8,9.6,4.6,11.4,12.1Z"/>
    <path class="st2" d="M157.5,220.3s-3.6-16.3,1-26.4c2.6-12.7,10.4-27-13.4-63.1,3.9,9.9,17.3,27.4,2.1,65.5,1.1-10,4.9-23.8,1.1-30.6-.5,5.3-2.5,12.2-2.5,12.2,0,0-5.6,13.9-3.8,18.1-7.6-1.4-15.7-2.3-20.9-.8-6.1-1.5-10.4-1.6-11.5-4.2,3.7,5,11.9,9.6,28.1,9.4-8.2.6-31.9.5-35.3-3.7-6.3-2.9-15.7-7.7-22.4-19.5,5.2,10.1,15.7,22.7,18.7,23.5,11.1,5,26.1,10.1,43.6,13,4.6,0,10.6.4,15.2,6.6Z"/>
    <path class="st2" d="M232.7,134.1s-10.3-13.1-10.6-24.2c-3.2-12.6-2.3-28.8-39.5-51,7.8,7.2,27.5,17.2,30.3,58.1-3.3-9.5-5.9-23.6-12.2-28.1,1.9,5,3,12.1,3,12.1,0,0,1,14.9,4.4,17.9-7.4,2-15.2,4.7-19.1,8.4-6.1,1.3-10,3.1-12.2,1.2,5.5,2.9,14.9,3.5,29.3-3.7-7.2,4.1-28.6,14.3-33.4,12-6.9.1-17.5-.2-28.7-7.9,9.1,6.9,24,13.7,27,13.1,12.2-.3,27.9-2.2,44.9-7.2,4.1-2.1,9.8-4.2,16.6-.7Z"/>
    <path class="st2" d="M268.2,29.4s-14.6-8.1-19.1-18.2c-7.8-10.4-13.4-25.6-56.2-31.7,10,3.6,32,5.1,50.5,41.8-6.8-7.4-14.6-19.4-22.2-21.1,3.7,3.9,7.5,10,7.5,10,0,0,6.7,13.4,11.1,14.8-6,4.8-12.1,10.3-14.4,15.1-5.2,3.6-8.1,6.7-10.8,5.9,6.2.5,15.1-2.6,25.6-14.9-5,6.6-20.8,24.3-26.1,24-6.3,2.8-16.2,6.6-29.5,3.9,11,2.8,27.4,3.3,30,1.5,11.1-5,24.9-12.9,38.6-24.1,3-3.5,7.4-7.7,15-7.1Z"/>
    <circle class="st2" cx="90.3" cy="201.6" r="2.5"/>
    <circle class="st2" cx="164.7" cy="147.9" r="2.5"/>
    <circle class="st2" cx="210.1" cy="68.3" r="2.5"/>
    <circle class="st2" cx="0" cy="220.3" r="2.5"/>
    <path class="st2" d="M48.9,231.5s-.4-9.9,3.5-11.2c3.9-4.1,15.3-16.3,15.3-16.3,0,0,5.7-7.5,6.3-16.6-.6-8-2.4-18.6-6.1-24.7-4.9-5.7-12.1-11.7-12.1-11.7l-4.2,1,6.1,6.3s9.5,8.4,9.5,20.5.2,14.3-4,19.2c-3.2,4-10.8,12.1-10.8,12.1,0,0-6.3,4.9-5.7,9.4-2.4-2.3-8-6.2-12-7.2-7-2.8-18.8-7.6-21.6-17-2.6-8.2-5.5-18.8-2.6-23.9,2.6-6.3,4.6-11.5,4.6-11.5l-5,.5s-5.4,7.4-5.5,15.9-2,21.5,10.8,33.5c2.6,2.6,16.5,8.2,16.5,8.2,0,0,14.5,3.2,17,13.6Z"/>
    <path class="st2" d="M35.6,179.9c-.6,2.6-3.1,15.1,5.4,13.4,1.5-.5,2.4-1.1,2.9-1.5s.6-.7.7-1.1c.3-1.3.7-4.5-1.8-9.6-1.1-3.5-5.4-8.5-6.9-11.8,0,4.1-.1,8.2-.2,9.6s0,.7-.1,1Z"/>
    <path class="st2" d="M105.9,149.7c.5,2.7,3.4,15,10.4,10,1.2-1.1,1.8-2,2-2.5s.3-.9.2-1.3c-.2-1.3-1.3-4.4-5.6-8-2.5-2.7-8.4-5.5-11.2-7.9,1.7,3.7,3.3,7.5,3.9,8.8s.2.7.3,1Z"/>
    <path class="st2" d="M156.6,93.7c1.5,2.2,9,12.5,13.5,5.1.6-1.5.8-2.5.9-3.1s0-.9-.4-1.3c-.7-1.1-2.9-3.6-8.2-5.2-3.3-1.6-9.9-1.7-13.4-2.9,3,2.8,5.9,5.6,7,6.6s.5.5.7.8Z"/>
    <path class="st2" d="M183.3,22.1c2.3,1.5,13.2,7.9,14.4-.6,0-1.6-.2-2.6-.4-3.2s-.5-.8-.8-1.1c-1.1-.7-4.1-2.1-9.6-1.5-3.7-.1-9.8,2.3-13.5,2.6,3.9,1.4,7.7,2.8,9,3.3s.6.3.9.5Z"/>
    <path class="st2" d="M139.2,192.3s-4.4-8.9-1.3-11.6c1.9-5.4,7.4-21.1,7.4-21.1,0,0,2.2-9.1-.9-17.8-3.8-7-9.8-16-15.6-20.1-6.8-3.2-15.8-5.8-15.8-5.8l-3.5,2.6,8.1,3.3s12.1,3.8,17,14.9,6,13,4.2,19.2c-1.3,4.9-4.9,15.4-4.9,15.4,0,0-3.8,7-1.4,10.9-3.1-1.1-9.9-2.4-13.9-1.8-7.6.3-20.3.7-26.6-6.8-5.7-6.4-12.7-14.9-12-20.8-.2-6.9-.4-12.4-.4-12.4l-4.4,2.4s-2,8.9,1.3,16.7,6.8,20.5,23.4,26.3c3.4,1.3,18.4.8,18.4.8,0,0,14.6-2.9,21,5.6Z"/>
    <path class="st2" d="M204.5,118.9s-7.6-6.4-5.9-10.1c-.5-5.7-1.7-22.3-1.7-22.3,0,0-1.7-9.2-8.1-15.9-6.3-4.9-15.4-10.7-22.4-12.1-7.5-.2-16.8,1.1-16.8,1.1l-2.1,3.8,8.7-.3s12.6-1.4,21.6,6.8,10.7,9.4,11.6,15.9c.8,5,1.7,16.1,1.7,16.1,0,0-.7,8,3.1,10.5-3.3.2-10,1.8-13.4,4-6.8,3.3-18.3,8.8-27.1,4.6-7.8-3.6-17.6-8.5-19.4-14.1-2.9-6.2-5.4-11.2-5.4-11.2l-3,4s1.8,9,8,14.8,14.5,16,32,14.6c3.7-.2,17.2-6.7,17.2-6.7,0,0,12.1-8.6,21.5-3.4Z"/>
    <path class="st2" d="M236.4,25.1s-9.5-2.7-9.5-6.8c-2.7-5-10.7-19.6-10.7-19.6,0,0-5.3-7.8-13.8-11.2-7.8-1.9-18.4-3.5-25.4-1.9-7,2.9-14.8,7.9-14.8,7.9l-.4,4.3,7.9-3.8s10.9-6.4,22.4-2.7,13.6,4.2,17.1,9.8c2.8,4.2,8.2,14,8.2,14,0,0,2.7,7.5,7.2,8.3-2.9,1.6-8.4,5.7-10.6,9.1-4.9,5.8-13.1,15.5-22.9,15.3-8.6,0-19.6-.6-23.5-5-5.2-4.4-9.5-8-9.5-8l-1.1,4.9s5.3,7.5,13.3,10.2,19.8,8.6,35.2.2c3.3-1.7,12.9-13.2,12.9-13.2,0,0,7.6-12.8,18.2-11.9Z"/>
    <path class="st2" d="M54.3,181.9c-1.6-3.5-8.4-9.5-8.4-9.5,0,0-8.7-10.9-8.4-15.9-4,1-7.6,2-7.6,2v12c-3.7,9.8-5.2,10.1-5.1,17.7.5,4.1,1.3,8.4,6.5,13.4,6.8,6,14.6,13.6,14.6,13.6,0,0,2.2-7.3,4-10.5,2.4-4.3,6.8-15.7,4.4-22.8ZM50,191.3c-2.1,8-5.6,13.7-5.8,17.9,0,0-2.9-4.4-7.3-7.6-3.9-3-6.1-8.5-7-11.8.3-7.6,2.8-12.9,4.2-16.3.1-4.7,0-12.6,0-12.6l5.7,11.4c6.7,7.1,10.8,11.1,10.2,19Z"/>
    <path class="st2" d="M123.4,143.6c-2.8-2.6-11.5-5.5-11.5-5.5,0,0-12.2-6.6-13.9-11.3-3.3,2.5-6.2,4.7-6.2,4.7l4.7,11c.4,10.4-.9,11.4,2.2,18.3,2.1,3.6,4.5,7.3,11.2,9.9,8.6,2.8,18.8,6.9,18.8,6.9,0,0-.8-7.6-.4-11.2.6-4.9.2-17.2-4.8-22.7ZM123,153.9c1.1,8.2.2,14.8,1.6,18.7,0,0-4.4-2.9-9.7-4.1-4.8-1.2-8.9-5.5-11-8.1-2.7-7.1-2.5-13-2.5-16.6-1.7-4.4-4.9-11.6-4.9-11.6l9.7,8.2c8.9,3.9,14.3,6,16.8,13.6Z"/>
    <path class="st2" d="M170.9,80.9c-3.7-1.1-12.7,0-12.7,0,0,0-13.9-.6-17.5-4.1-1.9,3.7-3.5,7-3.5,7l9,7.9c4.9,9.2,4.2,10.6,9.9,15.5,3.4,2.4,7.2,4.5,14.4,4,9-1.2,19.9-2,19.9-2,0,0-4.1-6.5-5.2-9.9-1.6-4.6-7.4-15.5-14.3-18.3ZM175,90.3c4.6,6.9,6.7,13.3,9.6,16.1,0,0-5.2-.7-10.5.5-4.8,1-10.4-1-13.4-2.5-5.5-5.2-7.9-10.6-9.5-13.9-3.4-3.2-9.5-8.3-9.5-8.3l12.3,3.2c9.7-.4,15.5-.8,21,4.8Z"/>
    <path class="st2" d="M188.9,4c-3.8.5-11.6,5.2-11.6,5.2,0,0-12.9,5-17.6,3.3-.3,4.1-.4,7.8-.4,7.8l11.4,3.6c8.2,6.4,8.1,8,15.4,10.2,4.1.8,8.5,1.2,14.7-2.2,7.7-4.7,17.4-9.9,17.4-9.9,0,0-6.3-4.3-8.8-7-3.3-3.6-13-11.2-20.5-11ZM196.6,11c7,4.4,11.5,9.4,15.3,10.9,0,0-5.1,1.5-9.4,4.7-4,2.8-9.9,3.3-13.3,3.1-7.2-2.5-11.5-6.5-14.3-8.8-4.4-1.5-12.1-3.8-12.1-3.8l12.6-2.1c8.7-4.3,13.9-7,21.2-4.1Z"/>
    <path class="st2" d="M28,158.9h-3.9s-.7,4.3,1.2,11.5c-.6,3.2-1.5,5.2-5,4.5-.7-.9-2.3-3.1,0-5,1.1,0,1.9,0,2,1.2-.6.6-1.7,1.3-.4,1.9,1.4-.3,2.2-.5,1.7-3.7-1-1.2-4.2-3.2-6.8,1.3,0,3.5,1.9,5.8,4.4,6.4,2.9,0,5.6-.5,6.9-5,0-4.9,0-13.1,0-13.1Z"/>
    <path class="st2" d="M39.7,156.1l3.7-1.2s2,3.8,2.4,11.3c1.6,2.8,3,4.5,6.2,2.7.4-1,1.2-3.6-1.6-4.7-1,.3-1.9.5-1.5,1.8.7.4,2.1.7,1,1.7-1.5.2-2.2.2-2.7-3,.6-1.4,3.1-4.3,6.9-.9,1.2,3.3,0,6.1-2.2,7.5-2.7.9-5.4,1.3-8.1-2.6-1.6-4.6-4.1-12.5-4.1-12.5Z"/>
    <path class="st2" d="M90.3,134.6l-3.6,1.7s1.2,4.2,6,9.9c.8,3.1.9,5.4-2.6,6.2-1-.5-3.4-1.8-2.1-4.5,1-.5,1.7-.9,2.4.3-.3.8-1,2,.5,1.9,1.2-.9,1.8-1.4,0-4.1-1.4-.6-5.2-1-5.6,4.1,1.4,3.2,4.2,4.4,6.7,3.9,2.6-1.2,4.8-2.8,4.1-7.5-2-4.5-5.6-11.9-5.6-11.9Z"/>
    <path class="st2" d="M99.3,126.8l2.7-2.9s3.6,2.4,7.5,8.7c2.7,1.7,4.8,2.5,6.7-.6-.2-1.1-.7-3.8-3.6-3.4-.7.8-1.4,1.3-.5,2.3.8,0,2.2-.3,1.7,1-1.2.8-1.8,1.3-3.9-1.4-.2-1.5.6-5.3,5.7-4.1,2.6,2.4,2.9,5.3,1.6,7.6-2,2.1-4.2,3.7-8.4,1.6-3.6-3.3-9.6-9-9.6-9Z"/>
    <path class="st2" d="M137,85.8l-2.6,2.9s2.7,3.4,9.3,6.8c1.9,2.6,2.9,4.6,0,6.7-1.1,0-3.8-.3-3.7-3.3.7-.8,1.2-1.5,2.3-.7,0,.8-.2,2.2,1.2,1.6.7-1.3,1.1-1.9-1.7-3.7-1.5,0-5.2,1-3.6,6,2.6,2.4,5.6,2.4,7.7,1,1.9-2.1,3.4-4.5.9-8.5-3.6-3.3-9.8-8.8-9.8-8.8Z"/>
    <path class="st2" d="M142.3,75l1.4-3.7s4.3.8,10.3,5.1c3.2.5,5.4.4,5.9-3.2-.6-.9-2.1-3.2-4.7-1.7-.4,1-.8,1.8.5,2.3.7-.3,1.9-1.1,1.9.3-.8,1.2-1.2,1.9-4.1.2-.7-1.3-1.5-5.1,3.7-5.9,3.4,1.2,4.7,3.8,4.5,6.4-1,2.7-2.4,5-7.1,4.7-4.6-1.6-12.3-4.6-12.3-4.6Z"/>
    <path class="st2" d="M160.4,22.7l-1.2,3.8s3.9,2,11.3,2.3c2.8,1.5,4.6,3,2.8,6.1-1,.4-3.6,1.3-4.8-1.5.3-1,.5-1.9,1.8-1.6.4.7.8,2,1.7.9.2-1.5.2-2.2-3.1-2.7-1.4.6-4.3,3.1-.7,6.9,3.4,1.1,6.1-.1,7.4-2.3.9-2.7,1.2-5.5-2.7-8.1-4.6-1.5-12.6-3.9-12.6-3.9Z"/>
    <path class="st2" d="M160.7,10.7l-.3-3.9s4.2-1,11.5.4c3.1-.9,5.1-1.9,4.1-5.3-.9-.6-3.2-2.1-5,.4,0,1.1,0,1.9,1.4,1.9.5-.6,1.2-1.8,1.9-.5-.2,1.5-.3,2.2-3.6,1.9-1.2-.9-3.5-4,.8-6.9,3.5-.4,5.9,1.5,6.7,3.9.2,2.9,0,5.6-4.5,7.3-4.9.5-13.1,1-13.1,1Z"/>
    <path class="st2" d="M0,160.9s64.5,3.1,112.9-45c18.2-22.3,38.6-49.3,45-81,3.6-31.4,3.2-32.2,3.2-34.9h-5.1s-4.3,50.2-14.4,65.8-17.4,38.7-63.2,68.8c-10.9,5.6-35,20.3-78.4,20.3v6Z"/>
    <path class="st2" d="M0,152.3v-1.8s54.5-6,75.9-19.7c6.7-4.3,46.5-34.6,53.2-52.5,8.8-17.2,20.3-36.1,22.2-79.7h2.8s-1.4,27.5-3.7,33c-2.2,9.2-12.1,36.5-15.9,42.5-3.6,6.5-23.9,37.9-42.6,48.5-13.3,12.1-50.6,31.8-91.8,29.8Z"/>
    <polygon class="st2" points="150.7 8.3 141.3 8.3 137.5 10.1 150.7 10.7 150.7 8.3"/>
    <polygon class="st2" points="149.7 18.1 130.6 16 126.4 18.1 149.3 20.9 149.7 18.1"/>
    <polygon class="st2" points="148.1 28.3 119.8 22.7 116.8 24 147.6 30.8 148.1 28.3"/>
    <polygon class="st2" points="146.1 37.4 108.1 27.5 104.3 29.7 145.3 40.2 146.1 37.4"/>
    <polygon class="st2" points="143.2 47.3 115.3 38.1 112.2 38.1 112.8 40.2 142.3 49.8 143.2 47.3"/>
    <polygon class="st2" points="139.9 56.1 116.3 47 116.3 49.8 138.9 58.5 139.9 56.1"/>
    <polygon class="st2" points="135.5 65.9 118.4 56.6 119.1 61.2 134.6 67.7 135.5 65.9"/>
    <polygon class="st2" points="126.7 83.1 111.9 72.2 109 73.6 125.3 85.3 126.7 83.1"/>
    <polygon class="st2" points="120.8 91.3 105.3 78.8 100.5 79.2 119.4 92.9 120.8 91.3"/>
    <polygon class="st2" points="114.3 98.4 93.2 79.7 87.7 79.2 112.2 100.5 114.3 98.4"/>
    <polygon class="st2" points="107.3 105.2 105.2 107.2 78.9 80.5 78.9 78.8 80.5 79.2 107.3 105.2"/>
    <polygon class="st2" points="99.9 111.9 98.3 113.3 78.9 92.3 79.9 89.2 99.9 111.9"/>
    <polygon class="st2" points="92.5 118.1 90.5 119.8 78.9 105.3 79.9 103 92.5 118.1"/>
    <polygon class="st2" points="84.6 124.5 82.7 125.9 77 118.8 78.2 114.5 84.6 124.5"/>
    <polygon class="st2" points="68.6 134.6 65.2 136 60.9 125.9 63.6 125.9 68.6 134.6"/>
    <polygon class="st2" points="59.1 138.3 55.7 139.4 48.6 120.2 51.2 121.1 59.1 138.3"/>
    <polygon class="st2" points="48.6 141.4 46.4 142 37 113.3 39.7 115.9 48.6 141.4"/>
    <polygon class="st2" points="39.8 143.6 37 144.4 28.1 109.3 29.9 107.2 39.8 143.6"/>
    <polygon class="st2" points="30.8 145.6 28.1 146.1 22.4 120.2 23.8 117.7 30.8 145.6"/>
    <polygon class="st2" points="20.6 147.4 17.8 147.9 16.7 130.3 18.7 126.8 20.6 147.4"/>
    <polygon class="st2" points="11.4 148.9 8.7 149.3 8.7 141.3 10.1 138.7 11.4 148.9"/>
    <path class="st2" d="M0,139.9v10.5s26.2-28,27.3-42.1l.7,1s6.9-7.6,5.3-18.7c-.8-1.3-1.8-1.3-1.8-1.3,0,0-4.9,6.6-5,9.2-3-1.9-7.6-4.4-8.5-3.6-1.2.9-1.9,1.3-1.9,1.3,0,0,9.8,8.4,6.2,9.7-3.6,2.5-21.2,9-22.4,17.3v6.2s4.7-10.3,14.5-15c5.9-4,10-8.5,10-8.5h1.4c0,.1-.8,10-7.7,16.8-6.6,6-18.2,15.4-18.2,17.1Z"/>
    <path class="st2" d="M139.8-.3h10.5s-28,26.2-42.1,27.3l1,.7s-7.6,6.9-18.7,5.3c-1.3-.8-1.3-1.8-1.3-1.8,0,0,6.6-4.9,9.2-5-1.9-3-4.4-7.6-3.6-8.5.9-1.2,1.3-1.9,1.3-1.9,0,0,8.4,9.8,9.7,6.2,2.5-3.6,9-21.2,17.3-22.4h6.2s-10.3,4.7-15,14.5c-4,5.9-8.5,10-8.5,10v1.4c.1,0,10-.8,16.8-7.7,6-6.6,15.4-18.2,17.1-18.2Z"/>
    <path class="st2" d="M74.4,79.2s-13.1,26.8-9.7,33.4c-3.4-3-5.2-4.6-6.4-4.6-2.1-.4-27-3.9-27-3.9l.7-1.6s26.6-.1,28.9,2.6c.7-4.1,5.2-16.5,9.4-20.6,1.5-2.4,3.1-5.2,3.1-5.2h1.1Z"/>
    <path class="st2" d="M104.5,31.2s2.3,29.7,8.5,33.7c-4.4-.9-6.8-1.4-7.8-.8-2,.7-25.3,10.3-25.3,10.3l-.2-1.7s22.9-13.6,26.2-12.4c-1.5-3.9-3.8-16.9-2.3-22.6,0-2.9,0-6,0-6l.9-.5Z"/>
    <path class="st2" d="M75.9,130.8l1.1-9.3s3.4-10.7,2.6-13.4c.6-9.9,1.1-21.9-2.6-28.3,1,9.3,0,19.7,0,19.7,0,0-7.5,19.7-6.3,22.3-2.7-1.5-17.8-4.6-17.8-4.6,0,0-12.8-2.9-15.2-5.6-4.4-3.6-7-6.5-7-6.5l-.8,1.6,7,6.8s15.7,9.3,19.1,9.9c5.4,1.9,19.8,7.5,19.8,7.5Z"/>
    <path class="st2" d="M131.8,75.6l-3.6-8.7s-2.3-11-4.3-13c-4.3-8.9-9.8-19.7-16.2-23.4,5.4,7.6,9.6,17.1,9.6,17.1,0,0,3.1,20.9,5.4,22.5-3.1,0-17.8,4.7-17.8,4.7,0,0-12.6,3.7-16,2.5-5.6-.9-9.2-2.2-9.2-2.2v1.8c.1,0,9.6,2.5,9.6,2.5,0,0,18.3.5,21.5-.7,5.6-1,21-3.1,21-3.1Z"/>
    <circle class="st2" cx="1022.7" cy="160.8" r="11.3"/>
    <circle class="st2" cx="973.2" cy="75.4" r="11.3"/>
    <circle class="st2" cx="1102.3" cy="218.6" r="11.3"/>
    <circle class="st2" cx="1198.8" cy="240" r="11.3"/>
    <path class="st2" d="M1143.3,266.1s-3.2-16.3-11.4-23.8c-7.5-10.7-20.3-20.6-12.8-63.2.4,10.7-5,32,24.2,61-5-8.7-14-19.9-13.2-27.6,2.6,4.7,7.2,10.2,7.2,10.2,0,0,10.7,10.5,10.7,15.1,6.4-4.3,13.5-8.4,18.8-9,5-3.8,8.9-5.6,8.9-8.4-1.4,6-7.1,13.6-22,19.8,7.8-2.7,29.5-12.3,30.9-17.4,4.6-5.2,11.3-13.3,12.8-26.8-.7,11.4-5.3,27.1-7.8,29-8.2,9-19.9,19.7-34.8,29.3-4.3,1.8-9.6,4.6-11.4,12.1Z"/>
    <path class="st2" d="M1041.3,221.8s3.6-16.3-1-26.4c-2.6-12.7-10.4-27,13.4-63.1-3.9,9.9-17.3,27.4-2.1,65.5-1.1-10-4.9-23.8-1.1-30.6.5,5.3,2.5,12.2,2.5,12.2,0,0,5.6,13.9,3.8,18.1,7.6-1.4,15.7-2.3,20.9-.8,6.1-1.5,10.4-1.6,11.5-4.2-3.7,5-11.9,9.6-28.1,9.4,8.2.6,31.9.5,35.3-3.7,6.3-2.9,15.7-7.7,22.4-19.5-5.2,10.1-15.7,22.7-18.7,23.5-11.1,5-26.1,10.1-43.6,13-4.6,0-10.6.4-15.2,6.6Z"/>
    <path class="st2" d="M966.1,135.6s10.3-13.1,10.6-24.2c3.2-12.6,2.3-28.8,39.5-51-7.8,7.2-27.5,17.2-30.3,58.1,3.3-9.5,5.9-23.6,12.2-28.1-1.9,5-3,12.1-3,12.1,0,0-1,14.9-4.4,17.9,7.4,2,15.2,4.7,19.1,8.4,6.1,1.3,10,3.1,12.2,1.2-5.5,2.9-14.9,3.5-29.3-3.7,7.2,4.1,28.6,14.3,33.4,12,6.9.1,17.5-.2,28.7-7.9-9.1,6.9-24,13.7-27,13.1-12.2-.3-27.9-2.2-44.9-7.2-4.1-2.1-9.8-4.2-16.6-.7Z"/>
    <path class="st2" d="M930.6,30.9s14.6-8.1,19.1-18.2c7.8-10.4,13.4-25.6,56.2-31.7-10,3.6-32,5.1-50.5,41.8,6.8-7.4,14.6-19.4,22.2-21.1-3.7,3.9-7.5,10-7.5,10,0,0-6.7,13.4-11.1,14.8,6,4.8,12.1,10.3,14.4,15.1,5.2,3.6,8.1,6.7,10.8,5.9-6.2.5-15.1-2.6-25.6-14.9,5,6.6,20.8,24.3,26.1,24,6.3,2.8,16.2,6.6,29.5,3.9-11,2.8-27.4,3.3-30,1.5-11.1-5-24.9-12.9-38.6-24.1-3-3.5-7.4-7.7-15-7.1Z"/>
    <circle class="st2" cx="1108.5" cy="203.1" r="2.5"/>
    <circle class="st2" cx="1034.1" cy="149.4" r="2.5"/>
    <circle class="st2" cx="988.7" cy="69.8" r="2.5"/>
    <circle class="st2" cx="1198.8" cy="221.8" r="2.5"/>
    <path class="st2" d="M1149.9,233s.4-9.9-3.5-11.2c-3.9-4.1-15.3-16.3-15.3-16.3,0,0-5.7-7.5-6.3-16.6.6-8,2.4-18.6,6.1-24.7,4.9-5.7,12.1-11.7,12.1-11.7l4.2,1-6.1,6.3s-9.5,8.4-9.5,20.5-.2,14.3,4,19.2c3.2,4,10.8,12.1,10.8,12.1,0,0,6.3,4.9,5.7,9.4,2.4-2.3,8-6.2,12-7.2,7-2.8,18.8-7.6,21.6-17,2.6-8.2,5.5-18.8,2.6-23.9-2.6-6.3-4.6-11.5-4.6-11.5l5,.5s5.4,7.4,5.5,15.9c.1,8.5,2,21.5-10.8,33.5-2.6,2.6-16.5,8.2-16.5,8.2,0,0-14.5,3.2-17,13.6Z"/>
    <path class="st2" d="M1163.2,181.4c.6,2.6,3.1,15.1-5.4,13.4-1.5-.5-2.4-1.1-2.9-1.5s-.6-.7-.7-1.1c-.3-1.3-.7-4.5,1.8-9.6,1.1-3.5,5.4-8.5,6.9-11.8,0,4.1.1,8.2.2,9.6s0,.7.1,1Z"/>
    <path class="st2" d="M1092.9,151.2c-.5,2.7-3.4,15-10.4,10-1.2-1.1-1.8-2-2-2.5s-.3-.9-.2-1.3c.2-1.3,1.3-4.4,5.6-8,2.5-2.7,8.4-5.5,11.2-7.9-1.7,3.7-3.3,7.5-3.9,8.8s-.2.7-.3,1Z"/>
    <path class="st2" d="M1042.2,95.2c-1.5,2.2-9,12.5-13.5,5.1-.6-1.5-.8-2.5-.9-3.1s0-.9.4-1.3c.7-1.1,2.9-3.6,8.2-5.2,3.3-1.6,9.9-1.7,13.4-2.9-3,2.8-5.9,5.6-7,6.6s-.5.5-.7.8Z"/>
    <path class="st2" d="M1015.5,23.5c-2.3,1.5-13.2,7.9-14.4-.6,0-1.6.2-2.6.4-3.2s.5-.8.8-1.1c1.1-.7,4.1-2.1,9.6-1.5,3.7-.1,9.8,2.3,13.5,2.6-3.9,1.4-7.7,2.8-9,3.3s-.6.3-.9.5Z"/>
    <path class="st2" d="M1059.6,193.7s4.4-8.9,1.3-11.6c-1.9-5.4-7.4-21.1-7.4-21.1,0,0-2.2-9.1.9-17.8,3.8-7,9.8-16,15.6-20.1,6.8-3.2,15.8-5.8,15.8-5.8l3.5,2.6-8.1,3.3s-12.1,3.8-17,14.9-6,13-4.2,19.2c1.3,4.9,4.9,15.4,4.9,15.4,0,0,3.8,7,1.4,10.9,3.1-1.1,9.9-2.4,13.9-1.8,7.6.3,20.3.7,26.6-6.8,5.7-6.4,12.7-14.9,12-20.8.2-6.9.4-12.4.4-12.4l4.4,2.4s2,8.9-1.3,16.7-6.8,20.5-23.4,26.3c-3.4,1.3-18.4.8-18.4.8,0,0-14.6-2.9-21,5.6Z"/>
    <path class="st2" d="M994.3,120.4s7.6-6.4,5.9-10.1c.5-5.7,1.7-22.3,1.7-22.3,0,0,1.7-9.2,8.1-15.9,6.3-4.9,15.4-10.7,22.4-12.1,7.5-.2,16.8,1.1,16.8,1.1l2.1,3.8-8.7-.3s-12.6-1.4-21.6,6.8-10.7,9.4-11.6,15.9c-.8,5-1.7,16.1-1.7,16.1,0,0,.7,8-3.1,10.5,3.3.2,10,1.8,13.4,4,6.8,3.3,18.3,8.8,27.1,4.6,7.8-3.6,17.6-8.5,19.4-14.1,2.9-6.2,5.4-11.2,5.4-11.2l3,4s-1.8,9-8,14.8c-6.2,5.8-14.5,16-32,14.6-3.7-.2-17.2-6.7-17.2-6.7,0,0-12.1-8.6-21.5-3.4Z"/>
    <path class="st2" d="M962.3,26.6s9.5-2.7,9.5-6.8c2.7-5,10.7-19.6,10.7-19.6,0,0,5.3-7.8,13.8-11.2,7.8-1.9,18.4-3.5,25.4-1.9,7,2.9,14.8,7.9,14.8,7.9l.4,4.3-7.9-3.8s-10.9-6.4-22.4-2.7c-3.6,1.2-13.6,4.2-17.1,9.8-2.8,4.2-8.2,14-8.2,14,0,0-2.7,7.5-7.2,8.3,2.9,1.6,8.4,5.7,10.6,9.1,4.9,5.8,13.1,15.5,22.9,15.3,8.6,0,19.6-.6,23.5-5,5.2-4.4,9.5-8,9.5-8l1.1,4.9s-5.3,7.5-13.3,10.2-19.8,8.6-35.2.2c-3.3-1.7-12.9-13.2-12.9-13.2,0,0-7.6-12.8-18.2-11.9Z"/>
    <path class="st2" d="M1148.8,206.2c1.8,3.2,4,10.5,4,10.5,0,0,7.8-7.7,14.6-13.6,5.1-5,6-9.3,6.5-13.4.1-7.6-1.5-7.9-5.1-17.7v-12s-3.5-1-7.6-2c.2,5-8.4,15.9-8.4,15.9,0,0-6.8,6-8.4,9.5-2.4,7.1,2,18.5,4.4,22.8ZM1159,173.7l5.7-11.4s-.1,8,0,12.6c1.4,3.4,3.9,8.7,4.2,16.3-.9,3.3-3,8.8-7,11.8-4.4,3.1-7.3,7.6-7.3,7.6-.2-4.1-3.7-9.9-5.8-17.9-.6-7.9,3.5-12,10.2-19Z"/>
    <path class="st2" d="M1070.6,167.9c.4,3.6-.4,11.2-.4,11.2,0,0,10.2-4,18.8-6.9,6.7-2.6,9.1-6.2,11.2-9.9,3.1-6.9,1.7-7.9,2.2-18.3l4.7-11s-2.9-2.3-6.2-4.7c-1.7,4.7-13.9,11.3-13.9,11.3,0,0-8.6,2.8-11.5,5.5-5,5.6-5.4,17.8-4.8,22.7ZM1092.6,141.9l9.7-8.2s-3.2,7.3-4.9,11.6c0,3.7.2,9.6-2.5,16.6-2.1,2.7-6.2,6.9-11,8.1-5.3,1.2-9.7,4.1-9.7,4.1,1.4-3.9.5-10.5,1.6-18.7,2.5-7.5,7.9-9.6,16.8-13.6Z"/>
    <path class="st2" d="M1013.6,100.7c-1.2,3.5-5.2,9.9-5.2,9.9,0,0,10.9.8,19.9,2,7.1.6,10.9-1.6,14.4-4,5.8-4.9,5-6.3,9.9-15.5l9-7.9s-1.6-3.3-3.5-7c-3.6,3.5-17.5,4.1-17.5,4.1,0,0-9-1.2-12.7,0-6.9,2.8-12.7,13.7-14.3,18.3ZM1044.8,86.9l12.3-3.2s-6.1,5.1-9.5,8.3c-1.7,3.3-4,8.7-9.5,13.9-3.1,1.5-8.6,3.5-13.4,2.5-5.3-1.3-10.5-.5-10.5-.5,3-2.9,5-9.2,9.6-16.1,5.5-5.7,11.3-5.2,21-4.8Z"/>
    <path class="st2" d="M989.4,16.5c-2.5,2.7-8.8,7-8.8,7,0,0,9.7,5.2,17.4,9.9,6.3,3.4,10.6,2.9,14.7,2.2,7.3-2.1,7.1-3.8,15.4-10.2l11.4-3.6s-.1-3.7-.4-7.8c-4.7,1.7-17.6-3.3-17.6-3.3,0,0-7.7-4.7-11.6-5.2-7.5-.2-17.1,7.4-20.5,11ZM1023.5,16.5l12.6,2.1s-7.6,2.2-12.1,3.8c-2.8,2.3-7.2,6.3-14.3,8.8-3.4.1-9.3-.3-13.3-3.1-4.3-3.3-9.4-4.7-9.4-4.7,3.9-1.4,8.3-6.4,15.3-10.9,7.3-3,12.5-.2,21.2,4.1Z"/>
    <path class="st2" d="M1170.8,160.4h3.9s.7,4.3-1.2,11.5c.6,3.2,1.5,5.2,5,4.5.7-.9,2.3-3.1,0-5-1.1,0-1.9,0-2,1.2.6.6,1.7,1.3.4,1.9-1.4-.3-2.2-.5-1.7-3.7,1-1.2,4.2-3.2,6.8,1.3,0,3.5-1.9,5.8-4.4,6.4-2.9,0-5.6-.5-6.9-5,0-4.9,0-13.1,0-13.1Z"/>
    <path class="st2" d="M1159.1,157.6l-3.7-1.2s-2,3.8-2.4,11.3c-1.6,2.8-3,4.5-6.2,2.7-.4-1-1.2-3.6,1.6-4.7,1,.3,1.9.5,1.5,1.8-.7.4-2.1.7-1,1.7,1.5.2,2.2.2,2.7-3-.6-1.4-3.1-4.3-6.9-.9-1.2,3.3,0,6.1,2.2,7.5,2.7.9,5.4,1.3,8.1-2.6,1.6-4.6,4.1-12.5,4.1-12.5Z"/>
    <path class="st2" d="M1108.5,136.1l3.6,1.7s-1.2,4.2-6,9.9c-.8,3.1-.9,5.4,2.6,6.2,1-.5,3.4-1.8,2.1-4.5-1-.5-1.7-.9-2.4.3.3.8,1,2-.5,1.9-1.2-.9-1.8-1.4,0-4.1,1.4-.6,5.2-1,5.6,4.1-1.4,3.2-4.2,4.4-6.7,3.9-2.6-1.2-4.8-2.8-4.1-7.5,2-4.5,5.6-11.9,5.6-11.9Z"/>
    <path class="st2" d="M1099.5,128.3l-2.7-2.9s-3.6,2.4-7.5,8.7c-2.7,1.7-4.8,2.5-6.7-.6.2-1.1.7-3.8,3.6-3.4.7.8,1.4,1.3.5,2.3-.8,0-2.2-.3-1.7,1,1.2.8,1.8,1.3,3.9-1.4.2-1.5-.6-5.3-5.7-4.1-2.6,2.4-2.9,5.3-1.6,7.6,2,2.1,4.2,3.7,8.4,1.6,3.6-3.3,9.6-9,9.6-9Z"/>
    <path class="st2" d="M1061.8,87.3l2.6,2.9s-2.7,3.4-9.3,6.8c-1.9,2.6-2.9,4.6,0,6.7,1.1,0,3.8-.3,3.7-3.3-.7-.8-1.2-1.5-2.3-.7,0,.8.2,2.2-1.2,1.6-.7-1.3-1.1-1.9,1.7-3.7,1.5,0,5.2,1,3.6,6-2.6,2.4-5.6,2.4-7.7,1-1.9-2.1-3.4-4.5-.9-8.5,3.6-3.3,9.8-8.8,9.8-8.8Z"/>
    <path class="st2" d="M1056.5,76.5l-1.4-3.7s-4.3.8-10.3,5.1c-3.2.5-5.4.4-5.9-3.2.6-.9,2.1-3.2,4.7-1.7.4,1,.8,1.8-.5,2.3-.7-.3-1.9-1.1-1.9.3.8,1.2,1.2,1.9,4.1.2.7-1.3,1.5-5.1-3.7-5.9-3.4,1.2-4.7,3.8-4.5,6.4,1,2.7,2.4,5,7.1,4.7,4.6-1.6,12.3-4.6,12.3-4.6Z"/>
    <path class="st2" d="M1038.4,24.2l1.2,3.8s-3.9,2-11.3,2.3c-2.8,1.5-4.6,3-2.8,6.1,1,.4,3.6,1.3,4.8-1.5-.3-1-.5-1.9-1.8-1.6-.4.7-.8,2-1.7.9-.2-1.5-.2-2.2,3.1-2.7,1.4.6,4.3,3.1.7,6.9-3.4,1.1-6.1-.1-7.4-2.3-.9-2.7-1.2-5.5,2.7-8.1,4.6-1.5,12.6-3.9,12.6-3.9Z"/>
    <path class="st2" d="M1038.1,12.2l.3-3.9s-4.2-1-11.5.4c-3.1-.9-5.1-1.9-4.1-5.3.9-.6,3.2-2.1,5,.4,0,1.1,0,1.9-1.4,1.9-.5-.6-1.2-1.8-1.9-.5.2,1.5.3,2.2,3.6,1.9,1.2-.9,3.5-4-.8-6.9-3.5-.4-5.9,1.5-6.7,3.9-.2,2.9,0,5.6,4.5,7.3,4.9.5,13.1,1,13.1,1Z"/>
    <path class="st2" d="M1198.8,162.4s-64.5,3.1-112.9-45c-18.2-22.3-38.6-49.3-45-81-3.6-31.4-3.2-32.2-3.2-34.9h5.1s4.3,50.2,14.4,65.8c10,15.6,17.4,38.7,63.2,68.8,10.9,5.6,35,20.3,78.4,20.3v6Z"/>
    <path class="st2" d="M1198.8,153.8v-1.8s-54.5-6-75.9-19.7c-6.7-4.3-46.5-34.6-53.2-52.5-8.8-17.2-20.3-36.1-22.2-79.7h-2.8s1.4,27.5,3.7,33c2.2,9.2,12.1,36.5,15.9,42.5,3.6,6.5,23.9,37.9,42.6,48.5,13.3,12.1,50.6,31.8,91.8,29.8Z"/>
    <polygon class="st2" points="1048.1 9.8 1057.5 9.8 1061.3 11.6 1048.1 12.2 1048.1 9.8"/>
    <polygon class="st2" points="1049.1 19.6 1068.2 17.5 1072.4 19.6 1049.5 22.4 1049.1 19.6"/>
    <polygon class="st2" points="1050.7 29.8 1079 24.2 1082 25.5 1051.2 32.3 1050.7 29.8"/>
    <polygon class="st2" points="1052.7 38.9 1090.7 29 1094.5 31.2 1053.5 41.7 1052.7 38.9"/>
    <polygon class="st2" points="1055.6 48.8 1083.5 39.6 1086.6 39.6 1086 41.7 1056.5 51.3 1055.6 48.8"/>
    <polygon class="st2" points="1058.9 57.6 1082.5 48.5 1082.5 51.3 1059.9 60 1058.9 57.6"/>
    <polygon class="st2" points="1063.3 67.4 1080.4 58.1 1079.7 62.7 1064.2 69.2 1063.3 67.4"/>
    <polygon class="st2" points="1072.1 84.6 1086.9 73.7 1089.8 75.1 1073.5 86.8 1072.1 84.6"/>
    <polygon class="st2" points="1078 92.8 1093.5 80.2 1098.3 80.7 1079.4 94.4 1078 92.8"/>
    <polygon class="st2" points="1084.5 99.9 1105.6 81.1 1111.1 80.7 1086.6 102 1084.5 99.9"/>
    <polygon class="st2" points="1091.5 106.7 1093.6 108.7 1119.9 81.9 1119.9 80.2 1118.2 80.7 1091.5 106.7"/>
    <polygon class="st2" points="1098.9 113.4 1100.5 114.8 1119.9 93.8 1118.9 90.7 1098.9 113.4"/>
    <polygon class="st2" points="1106.3 119.6 1108.3 121.3 1119.9 106.8 1118.9 104.5 1106.3 119.6"/>
    <polygon class="st2" points="1114.2 125.9 1116.1 127.4 1121.8 120.3 1120.6 116 1114.2 125.9"/>
    <polygon class="st2" points="1130.2 136.1 1133.6 137.5 1137.9 127.4 1135.2 127.4 1130.2 136.1"/>
    <polygon class="st2" points="1139.7 139.8 1143.1 140.9 1150.2 121.7 1147.6 122.5 1139.7 139.8"/>
    <polygon class="st2" points="1150.2 142.9 1152.4 143.5 1161.8 114.8 1159.1 117.4 1150.2 142.9"/>
    <polygon class="st2" points="1159 145.1 1161.8 145.8 1170.7 110.8 1168.9 108.7 1159 145.1"/>
    <polygon class="st2" points="1168 147 1170.7 147.6 1176.4 121.7 1175 119.2 1168 147"/>
    <polygon class="st2" points="1178.2 148.9 1181 149.4 1182.1 131.8 1180.1 128.3 1178.2 148.9"/>
    <polygon class="st2" points="1187.4 150.4 1190.1 150.8 1190.1 142.8 1188.7 140.1 1187.4 150.4"/>
    <path class="st2" d="M1198.8,141.4v10.5s-26.2-28-27.3-42.1l-.7,1s-6.9-7.6-5.3-18.7c.8-1.3,1.8-1.3,1.8-1.3,0,0,4.9,6.6,5,9.2,3-1.9,7.6-4.4,8.5-3.6,1.2.9,1.9,1.3,1.9,1.3,0,0-9.8,8.4-6.2,9.7,3.6,2.5,21.2,9,22.4,17.3v6.2s-4.7-10.3-14.5-15c-5.9-4-10-8.5-10-8.5h-1.4c0,.1.8,10,7.7,16.8,6.6,6,18.2,15.4,18.2,17.1Z"/>
    <path class="st2" d="M1058.9,1.2h-10.5s28,26.2,42.1,27.3l-1,.7s7.6,6.9,18.7,5.3c1.3-.8,1.3-1.8,1.3-1.8,0,0-6.6-4.9-9.2-5,1.9-3,4.4-7.6,3.6-8.5-.9-1.2-1.3-1.9-1.3-1.9,0,0-8.4,9.8-9.7,6.2-2.5-3.6-9-21.2-17.3-22.4h-6.2s10.3,4.7,15,14.5c4,5.9,8.5,10,8.5,10v1.4c-.1,0-10-.8-16.8-7.7-6-6.6-15.4-18.2-17.1-18.2Z"/>
    <path class="st2" d="M1124.4,80.7s13.1,26.8,9.7,33.4c3.4-3,5.2-4.6,6.4-4.6,2.1-.4,27-3.9,27-3.9l-.7-1.6s-26.6-.1-28.9,2.6c-.7-4.1-5.2-16.5-9.4-20.6-1.5-2.4-3.1-5.2-3.1-5.2h-1.1Z"/>
    <path class="st2" d="M1094.3,32.7s-2.3,29.7-8.5,33.7c4.4-.9,6.8-1.4,7.8-.8,2,.7,25.3,10.3,25.3,10.3l.2-1.7s-22.9-13.6-26.2-12.4c1.5-3.9,3.8-16.9,2.3-22.6,0-2.9,0-6,0-6l-.9-.5Z"/>
    <path class="st2" d="M1122.9,132.2l-1.1-9.3s-3.4-10.7-2.6-13.4c-.6-9.9-1.1-21.9,2.6-28.3-1,9.3,0,19.7,0,19.7,0,0,7.5,19.7,6.3,22.3,2.7-1.5,17.8-4.6,17.8-4.6,0,0,12.8-2.9,15.2-5.6,4.4-3.6,7-6.5,7-6.5l.8,1.6-7,6.8s-15.7,9.3-19.1,9.9c-5.4,1.9-19.8,7.5-19.8,7.5Z"/>
    <path class="st2" d="M1067,77.1l3.6-8.7s2.3-11,4.3-13c4.3-8.9,9.8-19.7,16.2-23.4-5.4,7.6-9.6,17.1-9.6,17.1,0,0-3.1,20.9-5.4,22.5,3.1,0,17.8,4.7,17.8,4.7,0,0,12.6,3.7,16,2.5,5.6-.9,9.2-2.2,9.2-2.2v1.8c-.1,0-9.6,2.5-9.6,2.5,0,0-18.3.5-21.5-.7-5.6-1-21-3.1-21-3.1Z"/>
  </g>
  <g id="Layer_2">
    <circle class="st3" cx="96.5" cy="217.1" r="6.2"/>
    <circle class="st3" cx="176.1" cy="159.3" r="6.2"/>
    <circle class="st3" cx="225.4" cy="73.9" r="6.2"/>
    <circle class="st3" cx="0" cy="238.5" r="6.2"/>
    <circle class="st3" cx="1102.3" cy="218.6" r="6.2"/>
    <circle class="st3" cx="1022.7" cy="160.8" r="6.2"/>
    <circle class="st3" cx="973.4" cy="75.4" r="6.2"/>
    <circle class="st3" cx="1198.8" cy="240" r="6.2"/>
  </g>
</svg>